<svg width="150" height="150" viewBox="0 0 150 150" fill="none" xmlns="http://www.w3.org/2000/svg">
<rect width="150" height="150" fill="#1E1E1E"/>
<path d="M30.2135 63.9504C30.5542 62.4481 31.7274 61.275 33.2297 60.9343L105.082 44.6378C107.8 44.0215 110.299 46.3028 109.932 49.0649L100.167 122.654C99.9383 124.375 98.6259 125.752 96.918 126.063L18.6023 140.324C15.78 140.838 13.3502 138.302 13.9847 135.504L30.2135 63.9504Z" fill="white"/>
<path d="M131.416 8.39935C135.152 7.55196 138.589 10.6885 138.085 14.4863L128.319 88.0761C128.005 90.4423 126.201 92.336 123.853 92.7636L45.5371 107.024C41.6566 107.731 38.3153 104.244 39.1875 100.397L55.417 28.8427C55.8856 26.7774 57.4982 25.1648 59.5635 24.6962L131.416 8.39935Z" fill="#F14E13" stroke="#1E1E1E" stroke-width="3"/>
<path d="M96.6504 73.8906L103.452 76.4072L96.6504 78.9238L94.1338 85.7246L91.6172 78.9238L84.8164 76.4072L91.6172 73.8906L94.1338 67.0889L96.6504 73.8906ZM87.5273 45.4238L103.452 51.3164L87.5273 57.209L81.6348 73.1328L75.7422 57.209L59.8174 51.3164L75.7422 45.4238L81.6348 29.499L87.5273 45.4238ZM110.047 36.2998L116.848 38.8174L110.047 41.334L107.53 48.1348L105.014 41.334L98.2119 38.8174L105.014 36.2998L107.53 29.499L110.047 36.2998Z" fill="white"/>
<path d="M29.5417 113.85L32.1805 120.981L39.3115 123.619L32.1805 126.258L29.5417 133.389L26.903 126.258L19.772 123.619L26.903 120.981L29.5417 113.85Z" fill="#F14E13"/>
</svg>
