<svg width="500" height="125" viewBox="0 0 500 125" fill="none" xmlns="http://www.w3.org/2000/svg">
<path d="M104.31 97.056C97.59 97.056 92.086 95.296 87.798 91.776C83.51 88.256 80.886 83.584 79.926 77.76L88.182 75.744C88.886 80.224 90.71 83.648 93.654 86.016C96.662 88.32 100.31 89.472 104.598 89.472C107.094 89.472 109.334 88.992 111.318 88.032C113.302 87.072 114.87 85.728 116.022 84C117.174 82.208 117.75 80.192 117.75 77.952C117.75 75.584 117.11 73.632 115.83 72.096C114.55 70.56 112.758 69.216 110.454 68.064C108.214 66.912 105.59 65.76 102.582 64.608C98.87 63.2 95.606 61.664 92.79 60C90.038 58.336 87.894 56.352 86.358 54.048C84.822 51.68 84.054 48.8 84.054 45.408C84.054 42.016 84.886 39.008 86.55 36.384C88.214 33.76 90.55 31.712 93.558 30.24C96.566 28.704 100.054 27.936 104.022 27.936C108.246 27.936 111.99 28.896 115.254 30.816C118.518 32.736 121.142 35.584 123.126 39.36L116.406 43.488C114.934 40.864 113.142 38.88 111.03 37.536C108.918 36.128 106.486 35.424 103.734 35.424C101.558 35.424 99.606 35.84 97.878 36.672C96.214 37.504 94.902 38.656 93.942 40.128C92.982 41.6 92.502 43.296 92.502 45.216C92.502 47.264 93.078 49.024 94.23 50.496C95.382 51.904 97.046 53.152 99.222 54.24C101.398 55.328 104.022 56.448 107.094 57.6C110.998 59.072 114.358 60.672 117.174 62.4C119.99 64.128 122.166 66.208 123.702 68.64C125.302 71.008 126.102 73.952 126.102 77.472C126.102 81.248 125.174 84.608 123.318 87.552C121.462 90.496 118.902 92.832 115.638 94.56C112.374 96.224 108.598 97.056 104.31 97.056Z" fill="white"/>
<path d="M137.378 96V48.672H145.538V58.752L143.618 59.424C144.514 56.992 145.73 54.944 147.266 53.28C148.802 51.552 150.658 50.24 152.834 49.344C155.01 48.384 157.41 47.904 160.034 47.904C165.218 47.904 169.282 49.44 172.226 52.512C175.17 55.52 176.642 60 176.642 65.952V96H168.482V68.928C168.482 64.128 167.586 60.608 165.794 58.368C164.066 56.064 161.41 54.912 157.826 54.912C155.202 54.912 152.962 55.52 151.106 56.736C149.314 57.952 147.938 59.872 146.978 62.496C146.018 65.056 145.538 68.352 145.538 72.384V96H137.378Z" fill="white"/>
<path d="M220.982 96L220.406 86.496V66.336C220.406 62.688 219.382 59.872 217.334 57.888C215.35 55.904 212.374 54.912 208.406 54.912C205.846 54.912 203.446 55.456 201.206 56.544C198.966 57.568 196.79 59.328 194.678 61.824L188.822 56.832C191.446 53.76 194.454 51.52 197.846 50.112C201.238 48.64 204.95 47.904 208.982 47.904C215.19 47.904 219.99 49.504 223.382 52.704C226.774 55.904 228.47 60.448 228.47 66.336V96H220.982ZM205.334 96.768C201.75 96.768 198.614 96.16 195.926 94.944C193.302 93.664 191.254 91.904 189.782 89.664C188.374 87.424 187.67 84.832 187.67 81.888C187.67 79.264 188.182 77.056 189.206 75.264C190.294 73.408 191.67 71.968 193.334 70.944C194.998 69.856 196.886 69.12 198.998 68.736C201.174 68.288 203.446 68.064 205.814 68.064H221.174V74.208H206.966C205.558 74.208 204.086 74.336 202.55 74.592C201.014 74.848 199.67 75.392 198.518 76.224C197.686 76.864 197.014 77.664 196.502 78.624C196.054 79.584 195.83 80.704 195.83 81.984C195.83 84.48 196.758 86.464 198.614 87.936C200.47 89.408 202.966 90.144 206.102 90.144C208.726 90.144 211.094 89.536 213.206 88.32C215.382 87.104 217.11 85.44 218.39 83.328C219.734 81.152 220.406 78.72 220.406 76.032L223.766 79.488C223.382 82.88 222.358 85.888 220.694 88.512C219.03 91.136 216.886 93.184 214.262 94.656C211.702 96.064 208.726 96.768 205.334 96.768Z" fill="white"/>
<path d="M241.721 115.584V48.672H249.785V62.784L247.193 60.96C248.025 58.208 249.241 55.872 250.841 53.952C252.505 51.968 254.521 50.464 256.889 49.44C259.257 48.416 261.945 47.904 264.953 47.904C269.241 47.904 272.985 48.992 276.185 51.168C279.449 53.28 281.977 56.192 283.769 59.904C285.561 63.552 286.457 67.712 286.457 72.384C286.457 77.312 285.497 81.632 283.577 85.344C281.657 88.992 279.065 91.808 275.801 93.792C272.537 95.776 268.921 96.768 264.953 96.768C261.945 96.768 259.257 96.224 256.889 95.136C254.521 94.048 252.537 92.544 250.937 90.624C249.337 88.704 248.185 86.528 247.481 84.096L249.785 81.888V115.584H241.721ZM263.609 89.376C266.489 89.376 269.017 88.672 271.193 87.264C273.433 85.792 275.161 83.776 276.377 81.216C277.657 78.656 278.297 75.712 278.297 72.384C278.297 69.056 277.657 66.112 276.377 63.552C275.161 60.992 273.433 59.008 271.193 57.6C269.017 56.128 266.489 55.392 263.609 55.392C260.729 55.392 258.201 56.128 256.025 57.6C253.849 59.008 252.153 60.992 250.937 63.552C249.721 66.112 249.113 69.056 249.113 72.384C249.113 75.712 249.721 78.656 250.937 81.216C252.153 83.776 253.849 85.792 256.025 87.264C258.201 88.672 260.729 89.376 263.609 89.376Z" fill="white"/>
<path d="M317.361 96.768C313.073 96.768 309.297 95.712 306.033 93.6C302.833 91.424 300.337 88.48 298.545 84.768C296.753 81.056 295.857 76.896 295.857 72.288C295.857 67.296 296.817 62.976 298.737 59.328C300.657 55.68 303.249 52.864 306.513 50.88C309.777 48.896 313.393 47.904 317.361 47.904C320.369 47.904 323.057 48.512 325.425 49.728C327.793 50.88 329.777 52.48 331.377 54.528C333.041 56.512 334.193 58.752 334.833 61.248L332.529 62.784V29.088H340.593V96H332.529V81.888L335.217 82.752C334.385 85.504 333.137 87.936 331.473 90.048C329.809 92.16 327.793 93.824 325.425 95.04C323.057 96.192 320.369 96.768 317.361 96.768ZM318.705 89.28C321.585 89.28 324.113 88.576 326.289 87.168C328.465 85.696 330.161 83.68 331.377 81.12C332.593 78.56 333.201 75.616 333.201 72.288C333.201 68.96 332.593 66.016 331.377 63.456C330.161 60.896 328.465 58.912 326.289 57.504C324.113 56.032 321.585 55.296 318.705 55.296C315.825 55.296 313.265 56.032 311.025 57.504C308.849 58.912 307.121 60.896 305.841 63.456C304.625 66.016 304.017 68.96 304.017 72.288C304.017 75.616 304.625 78.56 305.841 81.12C307.121 83.68 308.849 85.696 311.025 87.168C313.265 88.576 315.825 89.28 318.705 89.28Z" fill="white"/>
<path d="M354.409 96V48.672H362.569V61.344L360.457 61.824C360.905 59.008 361.961 56.576 363.625 54.528C365.353 52.416 367.337 50.784 369.577 49.632C371.881 48.48 374.121 47.904 376.297 47.904C377.769 47.904 379.177 48.064 380.521 48.384C381.865 48.704 383.241 49.248 384.649 50.016L380.617 57.312C379.849 56.928 378.921 56.608 377.833 56.352C376.809 56.096 375.817 55.968 374.857 55.968C373.321 55.968 371.785 56.256 370.249 56.832C368.777 57.408 367.433 58.304 366.217 59.52C365.001 60.736 364.073 62.368 363.433 64.416C363.177 65.312 362.953 66.496 362.761 67.968C362.633 69.376 362.569 71.328 362.569 73.824V96H354.409Z" fill="white"/>
<path d="M423.388 96L422.812 86.496V66.336C422.812 62.688 421.788 59.872 419.74 57.888C417.756 55.904 414.78 54.912 410.812 54.912C408.252 54.912 405.852 55.456 403.612 56.544C401.372 57.568 399.196 59.328 397.084 61.824L391.228 56.832C393.852 53.76 396.86 51.52 400.252 50.112C403.644 48.64 407.356 47.904 411.388 47.904C417.596 47.904 422.396 49.504 425.788 52.704C429.18 55.904 430.876 60.448 430.876 66.336V96H423.388ZM407.74 96.768C404.156 96.768 401.02 96.16 398.332 94.944C395.708 93.664 393.66 91.904 392.188 89.664C390.78 87.424 390.076 84.832 390.076 81.888C390.076 79.264 390.588 77.056 391.612 75.264C392.7 73.408 394.076 71.968 395.74 70.944C397.404 69.856 399.292 69.12 401.404 68.736C403.58 68.288 405.852 68.064 408.22 68.064H423.58V74.208H409.372C407.964 74.208 406.492 74.336 404.956 74.592C403.42 74.848 402.076 75.392 400.924 76.224C400.092 76.864 399.42 77.664 398.908 78.624C398.46 79.584 398.236 80.704 398.236 81.984C398.236 84.48 399.164 86.464 401.02 87.936C402.876 89.408 405.372 90.144 408.508 90.144C411.132 90.144 413.5 89.536 415.612 88.32C417.788 87.104 419.516 85.44 420.796 83.328C422.14 81.152 422.812 78.72 422.812 76.032L426.172 79.488C425.788 82.88 424.764 85.888 423.1 88.512C421.436 91.136 419.292 93.184 416.668 94.656C414.108 96.064 411.132 96.768 407.74 96.768Z" fill="white"/>
<path d="M447.968 96V55.008H438.176V48.672H448.064V42.528C448.064 38.944 448.64 36.128 449.792 34.08C450.944 31.968 452.512 30.496 454.496 29.664C456.544 28.768 458.816 28.32 461.312 28.32C463.04 28.32 464.576 28.48 465.92 28.8C467.264 29.12 468.544 29.6 469.76 30.24L467.072 36.384C466.368 36 465.6 35.712 464.768 35.52C463.936 35.264 463.072 35.136 462.176 35.136C460.128 35.136 458.592 35.776 457.568 37.056C456.608 38.336 456.128 40.16 456.128 42.528V48.672H467.168V55.008H456.128V96H447.968Z" fill="white"/>
<path d="M492.028 96.768C489.788 96.768 487.74 96.352 485.884 95.52C484.092 94.624 482.684 93.216 481.66 91.296C480.636 89.376 480.124 86.912 480.124 83.904V36L488.38 31.392V81.792C488.38 84.416 488.796 86.464 489.628 87.936C490.46 89.344 491.964 90.048 494.14 90.048C494.78 90.048 495.548 89.984 496.444 89.856C497.34 89.664 498.3 89.44 499.324 89.184V95.52C498.108 95.968 496.86 96.288 495.58 96.48C494.364 96.672 493.18 96.768 492.028 96.768ZM470.332 55.008V48.672H499.324V55.008H470.332Z" fill="white"/>
<path d="M11.3066 87.4417L52.5547 79.929L50.6562 94.2385L0 103.463L10.5371 57.0032L18.626 55.1682L11.3066 87.4417Z" fill="white"/>
<path d="M26.0391 36.7874L72.498 26.2502L66.1586 74.0218L15.502 83.2463L26.0391 36.7874Z" fill="#F14E13"/>
<path d="M48.8359 64.2117L52.7891 65.6746L48.8359 67.1375L47.3721 71.0916L45.9092 67.1375L41.9561 65.6746L45.9092 64.2117L47.3721 60.2576L48.8359 64.2117ZM43.5322 47.6628L52.7891 51.0886L43.5322 54.5134L40.1064 63.7712L36.6807 54.5134L27.4229 51.0886L36.6807 47.6628L40.1064 38.405L43.5322 47.6628ZM56.623 42.3591L60.5771 43.822L56.623 45.2849L55.1602 49.239L53.6973 45.2849L49.7432 43.822L53.6973 42.3591L55.1602 38.405L56.623 42.3591Z" fill="white"/>
<path d="M9.82236 87.4413L11.3563 91.5868L15.5019 93.1208L11.3563 94.6548L9.82236 98.8004L8.28837 94.6548L4.14282 93.1208L8.28837 91.5868L9.82236 87.4413Z" fill="#F14E13"/>
</svg>
