<svg xmlns="http://www.w3.org/2000/svg" width="840" height="480" viewBox="0 0 840 480" fill="none">
  <defs>
    <linearGradient id="bg" x1="0" y1="0" x2="840" y2="480" gradientUnits="userSpaceOnUse">
      <stop stop-color="#F8FAFC"/>
      <stop offset="1" stop-color="#EEF2FF"/>
    </linearGradient>
    <linearGradient id="canvas" x1="0" y1="0" x2="1" y2="1">
      <stop stop-color="#111827" stop-opacity="0.10"/>
      <stop offset="1" stop-color="#111827" stop-opacity="0.04"/>
    </linearGradient>
  </defs>

  <rect x="1" y="1" width="838" height="478" rx="18" fill="url(#bg)" stroke="#111827" stroke-opacity="0.12"/>

  <rect x="1" y="1" width="838" height="54" rx="18" fill="#FFFFFF" fill-opacity="0.65"/>
  <circle cx="40" cy="28" r="6" fill="#111827" fill-opacity="0.18"/>
  <circle cx="60" cy="28" r="6" fill="#111827" fill-opacity="0.12"/>
  <circle cx="80" cy="28" r="6" fill="#111827" fill-opacity="0.08"/>
  <rect x="114" y="20" width="160" height="16" rx="8" fill="#111827" fill-opacity="0.12"/>

  <rect x="18" y="74" width="170" height="388" rx="16" fill="#FFFFFF" fill-opacity="0.55" stroke="#111827" stroke-opacity="0.10"/>
  <rect x="34" y="96" width="110" height="12" rx="6" fill="#111827" fill-opacity="0.14"/>
  <g opacity="0.9">
    <rect x="34" y="122" width="138" height="34" rx="10" fill="url(#canvas)"/>
    <rect x="34" y="164" width="138" height="34" rx="10" fill="url(#canvas)"/>
    <rect x="34" y="206" width="138" height="34" rx="10" fill="url(#canvas)"/>
    <rect x="34" y="248" width="138" height="34" rx="10" fill="url(#canvas)"/>
  </g>

  <rect x="204" y="74" width="618" height="388" rx="16" fill="#FFFFFF" fill-opacity="0.55" stroke="#111827" stroke-opacity="0.10"/>
  <rect x="232" y="102" width="560" height="300" rx="18" fill="url(#canvas)"/>

  <rect x="262" y="136" width="210" height="22" rx="11" fill="#111827" fill-opacity="0.15"/>
  <rect x="262" y="168" width="300" height="16" rx="8" fill="#111827" fill-opacity="0.10"/>

  <rect x="262" y="356" width="160" height="18" rx="9" fill="#111827" fill-opacity="0.12"/>
  <rect x="434" y="356" width="120" height="18" rx="9" fill="#111827" fill-opacity="0.08"/>
</svg>
