<svg xmlns="http://www.w3.org/2000/svg" width="420" height="240" viewBox="0 0 420 240" fill="none">
  <defs>
    <linearGradient id="bg" x1="0" y1="0" x2="420" y2="240" gradientUnits="userSpaceOnUse">
      <stop stop-color="#F8FAFC"/>
      <stop offset="1" stop-color="#ECFEFF"/>
    </linearGradient>
    <linearGradient id="tile" x1="0" y1="0" x2="1" y2="1">
      <stop stop-color="#6366F1" stop-opacity="0.24"/>
      <stop offset="1" stop-color="#22C55E" stop-opacity="0.10"/>
    </linearGradient>
  </defs>

  <rect x="1" y="1" width="418" height="238" rx="16" fill="url(#bg)" stroke="#111827" stroke-opacity="0.12"/>

  <g>
    <rect x="18" y="18" width="184" height="98" rx="14" fill="url(#tile)" stroke="#111827" stroke-opacity="0.10"/>
    <rect x="218" y="18" width="184" height="98" rx="14" fill="url(#tile)" stroke="#111827" stroke-opacity="0.10"/>
    <rect x="18" y="124" width="184" height="98" rx="14" fill="url(#tile)" stroke="#111827" stroke-opacity="0.10"/>
    <rect x="218" y="124" width="184" height="98" rx="14" fill="url(#tile)" stroke="#111827" stroke-opacity="0.10"/>
  </g>

  <g opacity="0.55">
    <rect x="36" y="36" width="120" height="12" rx="6" fill="#111827" fill-opacity="0.20"/>
    <rect x="36" y="56" width="90" height="10" rx="5" fill="#111827" fill-opacity="0.14"/>
    <rect x="236" y="36" width="128" height="12" rx="6" fill="#111827" fill-opacity="0.20"/>
    <rect x="236" y="56" width="86" height="10" rx="5" fill="#111827" fill-opacity="0.14"/>
    <rect x="36" y="142" width="110" height="12" rx="6" fill="#111827" fill-opacity="0.20"/>
    <rect x="36" y="162" width="96" height="10" rx="5" fill="#111827" fill-opacity="0.14"/>
    <rect x="236" y="142" width="120" height="12" rx="6" fill="#111827" fill-opacity="0.20"/>
    <rect x="236" y="162" width="84" height="10" rx="5" fill="#111827" fill-opacity="0.14"/>
  </g>
</svg>
