<svg xmlns="http://www.w3.org/2000/svg" width="420" height="240" viewBox="0 0 420 240" fill="none">
  <defs>
    <linearGradient id="bg" x1="0" y1="0" x2="420" y2="240" gradientUnits="userSpaceOnUse">
      <stop stop-color="#F8FAFC"/>
      <stop offset="1" stop-color="#EEF2FF"/>
    </linearGradient>
    <linearGradient id="cell" x1="0" y1="0" x2="1" y2="1">
      <stop stop-color="#111827" stop-opacity="0.08"/>
      <stop offset="1" stop-color="#111827" stop-opacity="0.03"/>
    </linearGradient>
  </defs>

  <rect x="1" y="1" width="418" height="238" rx="16" fill="url(#bg)" stroke="#111827" stroke-opacity="0.12"/>
  <rect x="1" y="1" width="418" height="44" rx="16" fill="#FFFFFF" fill-opacity="0.65"/>
  <rect x="18" y="16" width="120" height="12" rx="6" fill="#111827" fill-opacity="0.15"/>
  <circle cx="390" cy="22" r="6" fill="#111827" fill-opacity="0.12"/>

  <g opacity="0.95">
    <rect x="18" y="64" width="384" height="22" rx="8" fill="url(#cell)"/>
    <rect x="18" y="94" width="384" height="22" rx="8" fill="url(#cell)"/>
    <rect x="18" y="124" width="384" height="22" rx="8" fill="url(#cell)"/>
    <rect x="18" y="154" width="384" height="22" rx="8" fill="url(#cell)"/>
    <rect x="18" y="184" width="260" height="22" rx="8" fill="url(#cell)"/>
  </g>

  <g opacity="0.7">
    <rect x="34" y="70" width="80" height="10" rx="5" fill="#111827" fill-opacity="0.18"/>
    <rect x="34" y="100" width="140" height="10" rx="5" fill="#111827" fill-opacity="0.16"/>
    <rect x="34" y="130" width="120" height="10" rx="5" fill="#111827" fill-opacity="0.16"/>
    <rect x="34" y="160" width="160" height="10" rx="5" fill="#111827" fill-opacity="0.16"/>
    <rect x="34" y="190" width="110" height="10" rx="5" fill="#111827" fill-opacity="0.16"/>
  </g>
</svg>
